<svg xmlns="http://www.w3.org/2000/svg" width="1711" height="439" fill="none"><script xmlns="" async="false" src="moz-extension://c455bcbb-c0ec-41e6-b7b9-a06fd4322113/js/vendor.js"/><script xmlns="" async="false" src="moz-extension://c455bcbb-c0ec-41e6-b7b9-a06fd4322113/js/injected/proxy-injected-providers.js"/><path fill="#fff" d="M700.3 335c-21.4 0-40.7-4.6-57.9-13.8-17.2-9.4-30.7-22.3-40.5-38.7-9.8-16.6-14.7-35.1-14.7-55.5s4.9-38.8 14.7-55.2c9.8-16.6 23.3-29.5 40.5-38.7 17.2-9.4 36.5-14.1 57.9-14.1s40.7 4.7 57.9 14.1c17.2 9.2 30.7 22 40.5 38.4s14.7 34.9 14.7 55.5-4.9 39.1-14.7 55.5c-9.8 16.4-23.3 29.3-40.5 38.7-17.2 9.2-36.5 13.8-57.9 13.8Zm0-34.2c14 0 26.6-3.1 37.8-9.3 11.2-6.4 20-15.2 26.4-26.4 6.4-11.4 9.6-24.1 9.6-38.1s-3.2-26.6-9.6-37.8c-6.4-11.4-15.2-20.2-26.4-26.4-11.2-6.4-23.8-9.6-37.8-9.6-14 0-26.6 3.2-37.8 9.6-11.2 6.2-20 15-26.4 26.4-6.4 11.2-9.6 23.8-9.6 37.8 0 14 3.2 26.7 9.6 38.1 6.4 11.2 15.2 20 26.4 26.4 11.2 6.2 23.8 9.3 37.8 9.3Zm369.84 31.2-42.9-61.5c-1.8.2-4.5.3-8.1.3h-47.401V332h-39V122h86.401c18.2 0 34 3 47.4 9 13.6 6 24 14.6 31.2 25.8 7.2 11.2 10.8 24.5 10.8 39.9 0 15.8-3.9 29.4-11.7 40.8-7.6 11.4-18.6 19.9-33 25.5l48.3 69h-42Zm-.9-135.3c0-13.4-4.4-23.7-13.2-30.9-8.8-7.2-21.7-10.8-38.7-10.8h-45.601v83.7h45.601c17 0 29.9-3.6 38.7-10.8 8.8-7.4 13.2-17.8 13.2-31.2ZM1327.37 335c-21.2 0-40.4-4.6-57.6-13.8-17-9.4-30.4-22.3-40.2-38.7-9.6-16.4-14.4-34.9-14.4-55.5s4.9-39.1 14.7-55.5c9.8-16.4 23.2-29.2 40.2-38.4 17.2-9.4 36.4-14.1 57.6-14.1 17.2 0 32.9 3 47.1 9 14.2 6 26.2 14.7 36 26.1l-25.2 23.7c-15.2-16.4-33.9-24.6-56.1-24.6-14.4 0-27.3 3.2-38.7 9.6-11.4 6.2-20.3 14.9-26.7 26.1-6.4 11.2-9.6 23.9-9.6 38.1 0 14.2 3.2 26.9 9.6 38.1 6.4 11.2 15.3 20 26.7 26.4 11.4 6.2 24.3 9.3 38.7 9.3 22.2 0 40.9-8.3 56.1-24.9l25.2 24c-9.8 11.4-21.9 20.1-36.3 26.1-14.2 6-29.9 9-47.1 9Zm290.27-216c18.8 0 35.2 3.7 49.2 11.1 14 7.4 24.8 18.4 32.4 33 7.8 14.4 11.7 31.9 11.7 52.5V332h-39v-54h-109.2v54h-38.4V215.6c0-20.6 3.8-38.1 11.4-52.5 7.8-14.6 18.7-25.6 32.7-33 14-7.4 30.4-11.1 49.2-11.1Zm54.3 126.3V212c0-19.4-4.8-34-14.4-43.8-9.6-10-23-15-40.2-15-17.2 0-30.6 5-40.2 15-9.6 9.8-14.4 24.4-14.4 43.8v33.3h109.2Z"/><path fill="#FFD15C" d="M439 219.5C439 340.726 340.726 439 219.5 439S0 340.726 0 219.5 98.274 0 219.5 0 439 98.274 439 219.5Z"/><path fill="#000" d="M381.027 185.904c-11.104-15.549-22.889-23.701-30.266-27.66a162.254 162.254 0 0 0-8.61-14.052c-9.081-13.276-18.544-24.787-28.12-34.214-8.956-8.817-18.3-16.091-27.772-21.622-16.484-9.628-33.579-14.325-52.265-14.36h-.214c-17.107 0-32.731 3.893-45.765 7.703-3.741 1.093-7.54 2.276-11.222 3.425-9.409 2.93-18.298 5.698-25.798 6.933-5.11.842-9.116 2.769-11.902 5.729-2.631 2.794-4.198 6.53-4.656 11.104-.856 8.553 2.178 20.013 8.774 33.142 13.194 26.261 38.467 55.171 64.385 73.657a69.474 69.474 0 0 1 7.554 6.247c-.035.01-.07.017-.107.024-20.155 2.878-30.657 24.54-34.909 36.244-1.109 3.052 1.909 5.786 4.989 4.747 12.213-4.117 36.828-10.706 51.238-2.855 2.692 12.876 1.557 25.5-3.302 35.365-2.98 6.05-7.226 10.886-12.62 14.375-5.817 3.765-12.843 5.869-20.887 6.257-8.716.421-18.598-1.183-29.367-4.769-11.718-3.901-24.586-10.183-38.245-18.674l-.254-.155-.263-.14a13.92 13.92 0 0 1-.481-.274c19.553-23.564 7.631-59.15 2.86-70.882-.637-1.564-2.795-1.553-3.655-.097-11.171 18.916-34.086 17.511-33.68 40.04a1.173 1.173 0 0 0-.027-.051c-17.519-14.245-30.522 4.706-52.321 1.86-1.677-.218-3.014 1.477-2.172 2.941 6.287 10.949 26.877 42.089 57.324 41.392a894.729 894.729 0 0 1 3.69 4.04l3.674 4.055c14.921 16.466 31.263 29.532 48.573 38.836 16.123 8.668 33.093 14.092 50.44 16.126 5.196.609 10.406.912 15.612.912 30.204 0 60.226-10.156 85.945-29.313 14.428-10.746 26.76-23.715 36.65-38.544 10.123-15.177 17.21-31.603 21.062-48.819 2.567-11.469 3.632-23.038 3.197-34.577 9.551-2.841 20.097 5.58 25.259 10.523 1.26 1.206 3.338.458 3.28-1.286-.267-7.905-2.534-24.996-15.626-43.333Zm-87.033 143.788c-25.956 18.399-56.471 26.59-86.286 23.094-15.129-1.774-29.976-6.531-44.13-14.141-13.513-7.263-26.438-17.158-38.502-29.467 26.96 16.373 51.049 24.654 71.702 24.654 1.221 0 2.43-.027 3.625-.086 11.199-.541 21.169-3.592 29.636-9.072 8.112-5.247 14.461-12.45 18.874-21.403 3.929-7.975 6.115-16.945 6.496-26.665.356-9.075-.867-18.349-3.638-27.565-5.82-19.341-17.863-36.297-33.91-47.743-11.885-8.477-23.808-19.467-34.472-31.778-8.628-9.958-15.966-20.211-21.471-29.971l.002-.012s-.044-.067-.114-.188l-.167-.3c-.914-1.706-3.316-7.368 4.252-8.449 71.493-10.211 216.961 125.609 128.103 199.092Z"/><path fill="#fff" d="M165.891 130.6c-7.57 1.081-5.166 6.74-4.252 8.449l.167.3c.072.121.114.188.114.188l-.002.012c5.505 9.76 12.843 20.013 21.471 29.971 10.667 12.311 22.587 23.301 34.472 31.778 16.049 11.446 28.092 28.402 33.91 47.743 2.771 9.216 3.994 18.49 3.638 27.565-.381 9.718-2.567 18.69-6.496 26.665-4.413 8.953-10.762 16.156-18.874 21.403-8.467 5.478-18.439 8.531-29.636 9.072a73.632 73.632 0 0 1-3.625.086c-20.653 0-44.742-8.281-71.702-24.654 12.064 12.309 24.989 22.204 38.502 29.467 14.154 7.61 29.001 12.367 44.13 14.141 29.815 3.494 60.33-4.697 86.286-23.094 88.858-73.483-56.61-209.303-128.103-199.092Z"/><path fill="#000" d="M115.693 293.02c0 .002.034.009.092.016-.065-.016-.095-.018-.092-.016Zm2.906-1.286.035-.055c-.003-.003-.014.016-.035.055Z"/><path fill="#fff" d="M240.364 125.636c-2.481-3.475-7.447-12.908 7.944-12.908 15.394 0 38.911 17.428 43.694 23.875-1.491 3.93-11.421 4.808-16.384 4.427-4.967-.381-13.406-1.197-19.86-4.427-6.457-3.229-12.911-7.491-15.394-10.967Z"/></svg>