<svg xmlns="http://www.w3.org/2000/svg" viewBox="0 0 1000 275">
  <defs>
    <linearGradient id="a" x1="243.2" x2="-7.2" y1="188.7" y2="88.5" gradientTransform="matrix(1 0 0 -1 0 276)" gradientUnits="userSpaceOnUse">
      <stop offset="0" stop-color="#c200fb"/>
      <stop offset="0.5" stop-color="#3772ff"/>
      <stop offset="1" stop-color="#5ac4be"/>
    </linearGradient>
    <linearGradient id="b" x1="238.4" x2="-12.1" y1="200.8" y2="100.6" gradientTransform="matrix(1 0 0 -1 0 276)" gradientUnits="userSpaceOnUse">
      <stop offset="0" stop-color="#c200fb"/>
      <stop offset="0.5" stop-color="#3772ff"/>
      <stop offset="1" stop-color="#5ac4be"/>
    </linearGradient>
    <linearGradient id="c" x1="263.4" x2="13" y1="138.1" y2="38" gradientTransform="matrix(1 0 0 -1 0 276)" gradientUnits="userSpaceOnUse">
      <stop offset="0" stop-color="#c200fb"/>
      <stop offset="0.5" stop-color="#3772ff"/>
      <stop offset="1" stop-color="#5ac4be"/>
    </linearGradient>
    <linearGradient id="d" x1="236.7" x2="-13.7" y1="204.9" y2="104.8" gradientTransform="matrix(1 0 0 -1 0 276)" gradientUnits="userSpaceOnUse">
      <stop offset="0" stop-color="#c200fb"/>
      <stop offset="0.5" stop-color="#3772ff"/>
      <stop offset="1" stop-color="#5ac4be"/>
    </linearGradient>
  </defs>
  
  <!-- Texto RAYID -->
  <path d="M343.7 169.3 331.4 148h-18.1v21.3h-10.6v-63.9h32c3.9 0 7.7 1 11.1 3 3.3 2 6.1 4.9 7.9 8.3 1.8 3.4 2.7 7.3 2.4 11.2-.2 3.9-1.5 7.6-3.7 10.9-2.3 3.4-5.6 6-9.4 7.6l13.2 22.9h-12.4Zm-9-53.1h-21.4v21.2h21.4c1.4 0 2.8-.3 4.1-.8 1.3-.6 2.4-1.4 3.4-2.4 1.5-1.5 2.5-3.4 2.9-5.4s.2-4.2-.6-6.1c-.8-1.9-2.1-3.6-3.9-4.8-1.7-1.2-3.8-1.8-5.9-1.8v.2Zm113.7-10.8-32 63.9h11.9l20.1-40.1 20.1 40.1h11.9l-32-63.9Zm134.9 0h-13.6L551.5 129l-18.2-23.6h-13.6l26.7 34.1v29.8H557v-30.4l26.2-33.6Zm54.4 0H659c8.5 0 16.6 3.4 22.5 9.4 6 6 9.4 14.1 9.4 22.5 0 8.5-3.4 16.6-9.4 22.6s-14.1 9.4-22.6 9.4h-21.3v-63.9Zm21.3 53c5.6 0 11-2.3 15-6.3s6.2-9.4 6.3-15c0-5.6-2.3-11-6.3-15s-9.4-6.2-15-6.3h-10.7v42.6H659Zm102.9-53h-10.6v63.9h10.6v-63.9Zm113.6 37.2c0 3.5-.6 7-2 10.3-1.4 3.2-3.4 6.2-5.9 8.6-3.7 3.7-8.5 6.3-13.6 7.3-5.2 1-10.5.5-15.4-1.5s-9-5.4-11.9-9.8-4.5-9.5-4.5-14.8v-37.2h10.6v37.2c0 4.2 1.7 8.3 4.7 11.3s7.1 4.7 11.3 4.7 8.3-1.7 11.3-4.7 4.7-7.1 4.7-11.3v-37.2h10.7v37.2Zm71 26.7v-38.2l21.4 21.4 21.3-21.4v38.2h10.8v-63.9l-32.1 32-32-32v63.9h10.6Z" fill="#f1f1f2"/>
  
  <!-- Elemento geométrico principal -->
  <path d="M223.9 103.4v95.1l-105.8 61.1-105.8-61.2V76.2l105.8-61 81.3 47 12.3-7.1L118.1 1 0 69.2v136.3l118.1 68.2 118.1-68.2V96.3l-12.3 7.1Z" fill="url(#a)"/>
  
  <!-- Letra P -->
  <path d="M88.5 198.5H70.8v-59.3h59c5.6 0 10.9-2.3 14.8-6.3 3.9-4 6.1-9.3 6.2-14.9 0-2.8-.5-5.5-1.6-8s-2.6-4.8-4.6-6.8c-1.9-2-4.2-3.5-6.8-4.6-2.5-1.1-5.3-1.6-8-1.6h-59V79h59c10.3 0 20.2 4.2 27.5 11.5 7.3 7.3 11.4 17.2 11.5 27.5 0 7.9-2.3 15.6-6.9 22.1-4.2 6.2-10.1 11-17 13.9-6.8 2.2-14 3.2-21.1 3.2H88.4v41.3Z" fill="url(#b)"/>
  
  <!-- Elemento diagonal -->
  <path d="M168.5 197h-20.6L132 169.2c6.3-.4 12.5-1.7 18.5-3.8l18.1 31.6Z" fill="url(#c)"/>
  
  <!-- Punto superior -->
  <path d="m211.5 83.6 12.2 6.8 12.2-6.8V69.3l-12.2-7.1-12.2 7.1v14.3Z" fill="url(#d)"/>
</svg>