<svg xmlns="http://www.w3.org/2000/svg" width="1527" height="400" fill="none"><script xmlns="" async="false" src="moz-extension://c455bcbb-c0ec-41e6-b7b9-a06fd4322113/js/vendor.js"/><script xmlns="" async="false" src="moz-extension://c455bcbb-c0ec-41e6-b7b9-a06fd4322113/js/injected/proxy-injected-providers.js"/><path fill="#fff" d="M631.314 349.605c-22.016 0-44.099-4.069-66.248-12.209-22.15-8.139-40.897-18.88-56.242-32.223l36.027-53.64c12.142 10.541 25.952 19.081 41.43 25.619 15.612 6.405 30.489 9.607 44.633 9.607 11.742 0 21.616-2.135 29.622-6.405 8.139-4.27 12.209-9.94 12.209-17.012 0-2.535-.534-4.804-1.601-6.805-1.068-2.002-2.869-3.87-5.404-5.604-2.536-1.735-5.071-3.203-7.606-4.404-2.535-1.334-6.205-2.735-11.008-4.203-4.67-1.467-8.74-2.602-12.209-3.402-3.336-.934-8.206-2.202-14.611-3.803-66.716-16.279-100.073-47.035-100.073-92.268 0-26.019 10.207-46.834 30.622-62.446 20.415-15.745 47.368-23.617 80.86-23.617 20.948 0 40.296 3.202 58.042 9.607 17.88 6.405 32.424 14.81 43.632 25.219l-32.424 53.839c-8.539-7.739-19.147-13.943-31.823-18.614-12.676-4.803-25.419-7.205-38.228-7.205-11.208 0-20.348 1.935-27.42 5.804-7.072 3.87-10.608 8.874-10.608 15.011 0 6.539 4.136 11.943 12.409 16.212 8.406 4.27 19.948 8.14 34.626 11.609 4.937 1.067 9.473 2.202 13.61 3.402 4.269 1.068 10.14 2.936 17.613 5.605 7.605 2.535 14.41 5.337 20.415 8.406 6.137 3.069 12.676 7.072 19.614 12.009 6.938 4.937 12.676 10.274 17.213 16.011 4.67 5.738 8.539 12.676 11.608 20.816 3.203 8.139 4.804 16.812 4.804 26.019 0 17.346-5.004 32.891-15.011 46.634-10.008 13.61-23.618 24.084-40.83 31.423-17.213 7.339-36.427 11.008-57.643 11.008Zm311.029-24.218c-18.28 16.146-42.498 24.218-72.654 24.218-30.155 0-54.373-8.072-72.653-24.218-18.28-16.278-27.42-37.761-27.42-64.447V135.648h66.449v115.885c0 10.141 3.069 18.28 9.207 24.418 6.271 6.138 14.41 9.207 24.417 9.207 10.008 0 18.08-3.069 24.218-9.207 6.272-6.138 9.407-14.277 9.407-24.418V135.648h66.449V260.94c0 26.686-9.14 48.169-27.42 64.447Zm142.507 24.218c-33.49 0-63.78-10.407-90.869-31.223l29.419-41.831c19.35 14.545 39.16 21.817 59.45 21.817 8.8 0 15.87-1.201 21.21-3.603 5.34-2.535 8.01-6.005 8.01-10.408 0-4.536-2.8-8.006-8.41-10.407-5.47-2.402-14.01-4.804-25.62-7.206-6.14-1.334-11.07-2.401-14.81-3.202-3.6-.934-8.47-2.402-14.61-4.403-6.14-2.002-11.14-4.003-15.01-6.005-3.74-2.135-8.01-4.937-12.81-8.406-4.67-3.469-8.34-7.205-11.01-11.208-2.53-4.136-4.73-9.073-6.6-14.811-1.87-5.871-2.8-12.276-2.8-19.214 0-14.944 4.07-27.687 12.2-38.228 8.14-10.541 18.82-18.28 32.03-23.217 13.21-4.937 28.15-7.406 44.83-7.406 30.82 0 59.11 9.007 84.86 27.02l-29.62 41.831c-18.81-11.742-36.43-17.613-52.84-17.613-7.47 0-13.61 1.001-18.41 3.002-4.67 2.002-7.01 5.071-7.01 9.207 0 4.403 2.67 7.806 8.01 10.207 5.34 2.269 13.88 4.604 25.62 7.006 5.74 1.067 10.61 2.068 14.61 3.002 4 .934 8.94 2.335 14.81 4.203 5.87 1.868 10.81 3.869 14.81 6.004 4.14 2.135 8.47 4.937 13.01 8.406 4.54 3.336 8.21 7.072 11.01 11.209 2.8 4.136 5.07 9.14 6.8 15.011 1.87 5.737 2.81 12.075 2.81 19.014 0 22.55-8.74 40.096-26.22 52.638-17.35 12.543-39.63 18.814-66.85 18.814Zm248.98-218.961c23.62 0 42.63 7.139 57.04 21.416 14.55 14.277 21.82 33.224 21.82 56.842v135.7h-66.45V231.118c0-10.941-3.14-19.681-9.41-26.219-6.27-6.672-14.61-10.008-25.02-10.008-11.47 0-20.74 3.403-27.82 10.208-6.93 6.805-10.4 15.745-10.4 26.82v112.683h-66.25V49.385h66.25v105.877c16.01-16.412 36.09-24.618 60.24-24.618Zm152.31-17.613c-11.47 0-21.08-3.802-28.82-11.408-7.74-7.74-11.61-17.346-11.61-28.821 0-11.742 3.87-21.416 11.61-29.022 7.74-7.739 17.35-11.608 28.82-11.608 11.74 0 21.42 3.87 29.02 11.608 7.74 7.606 11.61 17.28 11.61 29.022 0 11.475-3.87 21.082-11.61 28.821-7.6 7.606-17.28 11.408-29.02 11.408Zm-33.02 231.571V135.648h66.25v208.954h-66.25Z"/><path fill="#fff" fill-rule="evenodd" d="M332.961 169.387c4.698 10.44 5.925 19.657 1.226 26.005-4.496 6.341-13.691 8.19-24.934 7.164-20.241-1.64-46.813-12.695-72.569-31.122-25.756-18.434-44.764-40.137-52.738-58.774-4.496-10.44-5.723-19.657-1.227-26.004 4.502-6.348 13.697-8.19 25.142-7.368 20.028 1.844 46.814 12.695 72.361 31.129 25.756 18.428 44.765 40.334 52.739 58.97Z" clip-rule="evenodd"/><path fill="url(#a)" fill-rule="evenodd" d="M332.961 169.387c4.698 10.44 5.925 19.657 1.226 26.005-4.496 6.341-13.691 8.19-24.934 7.164-20.241-1.64-46.813-12.695-72.569-31.122-25.756-18.434-44.764-40.137-52.738-58.774-4.496-10.44-5.723-19.657-1.227-26.004 4.502-6.348 13.697-8.19 25.142-7.368 20.028 1.844 46.814 12.695 72.361 31.129 25.756 18.428 44.765 40.334 52.739 58.97Z" clip-rule="evenodd"/><path fill="#fff" fill-rule="evenodd" d="M426.541 198.713a137.093 137.093 0 0 0-3.848-9.866c-16.758-38.908-56.211-84.981-109.974-123.68C258.76 26.665 202.752 3.937 160.441.452 129.778-2.006 106.07 5.571 93.803 22.77L9.383 140.722c-12.262 17.199-11.857 42.177.405 70.437 11.214 25.708 32.15 54.541 60.637 82.256a425.477 425.477 0 0 0 49.539 41.221c53.757 38.699 109.973 61.225 152.284 64.912 30.455 2.458 54.371-5.119 66.638-22.318l84.217-117.952c10.815-15.17 11.776-36.387 3.443-60.571l-.005.006Zm-15.092 51.968-.613 1.02c-10.011 12.904-29.025 17.199-53.149 15.362-40.263-3.275-93.615-25.193-144.919-62.049-51.309-36.856-89.124-80.471-105.274-117.738-9.606-22.115-11.654-41.568-2.454-55.29l.417-.817c9.808-13.715 29.228-18.225 53.757-16.178 40.268 3.275 93.615 25.186 144.924 62.042 51.506 36.856 89.327 80.477 105.477 117.541 9.606 22.526 11.648 42.589 1.834 56.107Z" clip-rule="evenodd"/><path fill="url(#b)" fill-rule="evenodd" d="M426.541 198.713a137.093 137.093 0 0 0-3.848-9.866c-16.758-38.908-56.211-84.981-109.974-123.68C258.76 26.665 202.752 3.937 160.441.452 129.778-2.006 106.07 5.571 93.803 22.77L9.383 140.722c-12.262 17.199-11.857 42.177.405 70.437 11.214 25.708 32.15 54.541 60.637 82.256a425.477 425.477 0 0 0 49.539 41.221c53.757 38.699 109.973 61.225 152.284 64.912 30.455 2.458 54.371-5.119 66.638-22.318l84.217-117.952c10.815-15.17 11.776-36.387 3.443-60.571l-.005.006Zm-15.092 51.968-.613 1.02c-10.011 12.904-29.025 17.199-53.149 15.362-40.263-3.275-93.615-25.193-144.919-62.049-51.309-36.856-89.124-80.471-105.274-117.738-9.606-22.115-11.654-41.568-2.454-55.29l.417-.817c9.808-13.715 29.228-18.225 53.757-16.178 40.268 3.275 93.615 25.186 144.924 62.042 51.506 36.856 89.327 80.477 105.477 117.541 9.606 22.526 11.648 42.589 1.834 56.107Z" clip-rule="evenodd"/><defs><linearGradient id="a" x1="146.95" x2="285.988" y1="-4.835" y2="404.726" gradientUnits="userSpaceOnUse"><stop stop-color="#27B0E6"/><stop offset=".044" stop-color="#49A1DB"/><stop offset=".118" stop-color="#7D8ACA"/><stop offset=".216" stop-color="#A279BD"/><stop offset=".296" stop-color="#BA6FB6"/><stop offset=".375" stop-color="#C26BB3"/><stop offset=".468" stop-color="#D563AD"/><stop offset=".58" stop-color="#E65BA7"/><stop offset=".709" stop-color="#F156A3"/><stop offset=".823" stop-color="#F853A1"/><stop offset="1" stop-color="#FA52A0"/></linearGradient><linearGradient id="b" x1="146.95" x2="285.988" y1="-4.835" y2="404.726" gradientUnits="userSpaceOnUse"><stop stop-color="#27B0E6"/><stop offset=".044" stop-color="#49A1DB"/><stop offset=".118" stop-color="#7D8ACA"/><stop offset=".216" stop-color="#A279BD"/><stop offset=".296" stop-color="#BA6FB6"/><stop offset=".375" stop-color="#C26BB3"/><stop offset=".468" stop-color="#D563AD"/><stop offset=".58" stop-color="#E65BA7"/><stop offset=".709" stop-color="#F156A3"/><stop offset=".823" stop-color="#F853A1"/><stop offset="1" stop-color="#FA52A0"/></linearGradient></defs></svg>