<svg width="100" height="100" viewBox="0 0 100 100" fill="none" xmlns="http://www.w3.org/2000/svg"><script xmlns="" async="false" src="moz-extension://c455bcbb-c0ec-41e6-b7b9-a06fd4322113/js/vendor.js"/><script xmlns="" async="false" src="moz-extension://c455bcbb-c0ec-41e6-b7b9-a06fd4322113/js/injected/proxy-injected-providers.js"/>
<rect width="100" height="100" fill="black"/>
<g clip-path="url(#clip0_5845_1140)">
<path d="M70.8592 37.4281H64.136C63.3591 37.4281 62.6138 37.0965 62.0905 36.5121L59.3632 33.4481C58.951 32.9901 58.3801 32.7216 57.7617 32.7216C57.1433 32.7216 56.5725 32.9901 56.1602 33.4481L53.8135 36.0856C53.0524 36.9385 51.9424 37.4439 50.8007 37.4439H13.9979C12.9514 40.3974 12.2696 43.5403 12 46.8097H46.7415C47.3599 46.8097 47.9307 46.557 48.3589 46.1147L51.5936 42.7507C51.99 42.3242 52.5608 42.0873 53.1316 42.0873H53.2585C53.8769 42.0873 54.4477 42.3558 54.86 42.8138L57.5873 45.8778C58.1106 46.4622 58.8558 46.7939 59.6328 46.7939H87.9841C87.7146 43.5403 87.0328 40.3816 85.9862 37.4123L70.8592 37.4281Z" fill="white"/>
<path d="M33.0258 66.5204C33.6442 66.5204 34.2151 66.2676 34.6432 65.8254L37.8779 62.4613C38.2902 62.0349 38.8452 61.798 39.4318 61.798H39.5587C40.1771 61.798 40.7638 62.0665 41.1602 62.5087L43.8875 65.5727C44.4108 66.1571 45.156 66.4888 45.933 66.4888H84.369C85.812 63.5195 86.8585 60.345 87.4928 57.0125H50.5948C49.8178 57.0125 49.0726 56.6808 48.5493 56.0964L45.822 53.064C45.4097 52.606 44.8389 52.3533 44.2205 52.3533C43.6021 52.3533 43.0154 52.6218 42.619 53.064L40.2722 55.7016C39.5111 56.5702 38.4012 57.0598 37.2437 57.0598H12.5234C13.1577 60.3923 14.2042 63.5669 15.6472 66.5361L33.0258 66.5204Z" fill="white"/>
<path d="M60.2828 27.1779C60.9012 27.1779 61.472 26.9252 61.9002 26.483L65.1349 23.1189C65.5313 22.6924 66.1021 22.4555 66.6888 22.4555H66.8157C67.4341 22.4555 68.0049 22.724 68.4172 23.182L71.1445 26.2618C71.6677 26.8462 72.413 27.1779 73.19 27.1779H80.4998C73.5388 17.9543 62.471 12 50.0078 12C37.5446 12 26.461 17.9543 19.5 27.1779H60.2828Z" fill="white"/>
<path d="M45.6155 75.9177H35.6259C34.8489 75.9177 34.1037 75.586 33.5804 75.0017L30.8531 71.9377C30.4409 71.4796 29.87 71.2269 29.2516 71.2269C28.6332 71.2269 28.0465 71.4954 27.6501 71.9377L25.3034 74.5752C24.5422 75.4439 23.4323 75.9335 22.2748 75.9335H22.1162C29.0772 83.3566 38.9875 88.0158 50.0077 88.0158C61.028 88.0158 70.9224 83.3566 77.8992 75.9335L45.6155 75.9177Z" fill="white"/>
</g>
<defs>
<clipPath id="clip0_5845_1140">
<rect width="76" height="76" fill="white" transform="translate(12 12)"/>
</clipPath>
</defs>
</svg>