<svg width="100" height="100" viewBox="0 0 100 100" fill="none" xmlns="http://www.w3.org/2000/svg"><script xmlns="" async="false" src="moz-extension://c455bcbb-c0ec-41e6-b7b9-a06fd4322113/js/vendor.js"/><script xmlns="" async="false" src="moz-extension://c455bcbb-c0ec-41e6-b7b9-a06fd4322113/js/injected/proxy-injected-providers.js"/>
<rect width="100" height="100" fill="#1D4CDB"/>
<mask id="mask0_5845_888" style="" maskUnits="userSpaceOnUse" x="15" y="12" width="69" height="76">
<path d="M84 12H15V88H84V12Z" fill="white"/>
</mask>
<g mask="url(#mask0_5845_888)">
<path d="M55.2824 55.775L51.5073 65.8638C51.396 66.1435 51.396 66.4544 51.5073 66.7342L57.99 84.0983L65.4922 79.8699L56.4929 55.775C56.2857 55.2155 55.4894 55.2155 55.2824 55.775Z" fill="white"/>
<path d="M62.8318 38.7998C62.6248 38.2402 61.8284 38.2402 61.6214 38.7998L57.8464 48.8886C57.7348 49.1686 57.7348 49.4795 57.8464 49.7592L68.4702 78.1913L75.9725 73.9629L62.8318 38.7998Z" fill="white"/>
<path d="M49.5 16.7102C49.6911 16.7102 49.8664 16.7568 50.0415 16.8501L78.6482 32.9703C78.9827 33.1569 79.1897 33.4989 79.1897 33.872V66.1125C79.1897 66.4856 78.9827 66.8276 78.6482 67.014L50.0415 83.15C49.8824 83.2431 49.6911 83.2899 49.5 83.2899C49.3089 83.2899 49.1336 83.2431 48.9585 83.15L20.3677 67.0297C20.0332 66.843 19.8262 66.501 19.8262 66.1282V33.872C19.8262 33.4989 20.0332 33.1569 20.3677 32.9703L48.9744 16.8501C49.1336 16.7568 49.3249 16.7102 49.5 16.7102ZM49.5 12C48.4807 12 47.4612 12.2643 46.5532 12.7773L17.9467 28.8975C16.1309 29.9235 15 31.82 15 33.872V66.1125C15 68.1645 16.1309 70.0766 17.9467 71.1026L46.5532 87.2227C47.4612 87.7357 48.4807 88 49.5 88C50.5193 88 51.5388 87.7357 52.4468 87.2227L81.0532 71.1026C82.8851 70.0766 84 68.1799 84 66.1125V33.872C84 31.82 82.8691 29.908 81.0532 28.882L52.4627 12.7773C51.5388 12.2643 50.5193 12 49.5 12Z" fill="white"/>
<path d="M30.5957 78.2221L33.2238 71.1959L38.5119 75.4864L33.5742 79.901L30.5957 78.2221Z" fill="white"/>
<path d="M47.0943 31.5712H39.8471C39.3056 31.5712 38.8117 31.8976 38.6365 32.3951L23.0908 73.9937L30.5929 78.2219L47.7155 32.4106C47.8588 32.0064 47.5561 31.5712 47.0943 31.5712Z" fill="white"/>
<path d="M59.7867 31.5712H52.5396C51.9981 31.5712 51.5041 31.8976 51.329 32.3951L33.5693 79.9008L41.0713 84.1292L60.392 32.4261C60.5512 32.0064 60.2329 31.5712 59.7867 31.5712Z" fill="white"/>
</g>
</svg>