<svg width="100" height="100" viewBox="0 0 100 100" fill="none" xmlns="http://www.w3.org/2000/svg"><script xmlns="" async="false" src="moz-extension://c455bcbb-c0ec-41e6-b7b9-a06fd4322113/js/vendor.js"/><script xmlns="" async="false" src="moz-extension://c455bcbb-c0ec-41e6-b7b9-a06fd4322113/js/injected/proxy-injected-providers.js"/>
<rect width="100" height="100" fill="#E84142"/>
<path d="M80 21H20V75H80V21Z" fill="white"/>
<path fill-rule="evenodd" clip-rule="evenodd" d="M98 52C98 78.5099 76.5099 100 50 100C23.4903 100 2 78.5099 2 52C2 25.4903 23.4903 4 50 4C76.5099 4 98 25.4903 98 52ZM36.3982 71.1016H27.0827C25.1253 71.1016 24.1584 71.1016 23.5688 70.7245C22.932 70.3116 22.5429 69.6277 22.4957 68.8729C22.4603 68.1775 22.9439 67.3282 23.9108 65.6301L46.9118 25.0877C47.8905 23.3661 48.3857 22.5053 49.0107 22.187C49.6828 21.845 50.4847 21.845 51.1568 22.187C51.7818 22.5053 52.277 23.3661 53.2557 25.0877L57.9842 33.3419L58.0083 33.3841C59.0654 35.231 59.6015 36.1676 59.8355 37.1506C60.0949 38.2237 60.0949 39.3557 59.8355 40.4287C59.5997 41.4192 59.0691 42.3626 57.996 44.2375L45.9141 65.5948L45.8829 65.6495C44.8188 67.5117 44.2796 68.4555 43.5322 69.1675C42.7186 69.946 41.7398 70.5116 40.6668 70.8306C39.6881 71.1016 38.5915 71.1016 36.3982 71.1016ZM59.9228 71.1016H73.2707C75.2399 71.1016 76.2306 71.1016 76.8206 70.713C77.4572 70.3001 77.8579 69.6041 77.8937 68.8499C77.9276 68.1768 77.4546 67.3606 76.5278 65.7613C76.4959 65.7068 76.4639 65.6514 76.4313 65.5951L69.7452 54.1571L69.6691 54.0283C68.7296 52.4395 68.2553 51.6372 67.6462 51.3271C66.9745 50.9851 66.1839 50.9851 65.5121 51.3271C64.8989 51.6455 64.4036 52.4827 63.4249 54.1689L56.7626 65.6069L56.7398 65.6463C55.7645 67.3298 55.2771 68.1711 55.3122 68.8614C55.3594 69.6162 55.7485 70.3116 56.3852 70.7245C56.9631 71.1016 57.9536 71.1016 59.9228 71.1016Z" fill="#E84142"/>
</svg>