<svg width="100" height="100" viewBox="0 0 100 100" fill="none" xmlns="http://www.w3.org/2000/svg"><script xmlns="" async="false" src="moz-extension://c455bcbb-c0ec-41e6-b7b9-a06fd4322113/js/vendor.js"/><script xmlns="" async="false" src="moz-extension://c455bcbb-c0ec-41e6-b7b9-a06fd4322113/js/injected/proxy-injected-providers.js"/>
<rect width="100" height="100" fill="black"/>
<g clip-path="url(#clip0_5845_499)">
<path d="M29.7321 23.7162L49.9998 12L70.2675 23.7162L62.6675 27.8323L49.9998 20.5485L37.016 27.8323L29.7321 23.7162ZM69.9483 38.2838L62.6645 34.1677L49.9998 41.4515L37.016 34.1677L29.7321 38.2838V46.8354L42.3998 54.1192V69.003L49.6837 73.4354L56.9675 69.003V54.4354L69.6352 47.1515V38.2838H69.9483ZM69.9483 61.7162V53.1677L62.6675 57.6V65.8323L69.9483 61.7162ZM75.3321 64.5677L62.6645 71.8515V80.4L82.9321 68.6838V45.2515L75.3321 50V64.5677ZM68.0513 31L75.3352 35.4323V43.9838L82.619 39.5515V31L75.3352 26.5677L68.0513 31ZM42.3998 75.0162V83.5646L49.6837 87.997L56.9675 83.5646V75.0162L49.6837 79.4485L42.3998 75.0162ZM29.7321 61.7162L37.016 65.8323V57.2838L29.7321 52.8515V61.7162ZM42.3998 31L49.6837 35.4323L57.2837 31L49.9998 26.5677L42.3998 31ZM24.3483 35.4323L31.9483 31L24.3483 26.5677L17.0675 31V39.5485L24.3513 43.9808V35.4323H24.3483ZM24.3483 50L17.0645 45.5677V69L37.3321 80.7162V72.1677L24.6645 64.8838V50H24.3483Z" fill="#F0B90B"/>
</g>
<defs>
<clipPath id="clip0_5845_499">
<rect width="76" height="76" fill="white" transform="translate(12 12)"/>
</clipPath>
</defs>
</svg>