<svg width="100" height="100" viewBox="0 0 100 100" fill="none" xmlns="http://www.w3.org/2000/svg"><script xmlns="" async="false" src="moz-extension://c455bcbb-c0ec-41e6-b7b9-a06fd4322113/js/vendor.js"/><script xmlns="" async="false" src="moz-extension://c455bcbb-c0ec-41e6-b7b9-a06fd4322113/js/injected/proxy-injected-providers.js"/>
<rect width="100" height="100" fill="#052925"/>
<path d="M86.8308 49.8619C86.8976 55.8422 85.645 61.5556 83.1862 67.0124C79.675 74.7842 71.2614 81.1393 63.5768 74.3736C57.309 68.8604 56.1489 57.6646 46.76 56.027C34.3374 54.523 34.0396 68.9271 25.9187 70.5544C16.8738 72.3921 13.8708 57.1769 14.0042 50.2674C14.1377 43.358 15.9754 33.6457 23.8346 33.6457C32.8795 33.6457 33.4904 47.3414 44.9736 46.6022C56.344 45.8271 56.5442 31.577 63.9721 25.4734C70.3836 20.2015 77.9245 24.0669 81.6975 30.4117C85.1984 36.2791 86.7333 43.168 86.8154 49.8568H86.8257L86.8308 49.8619Z" fill="white"/>
</svg>