<svg width="100" height="100" viewBox="0 0 100 100" fill="none" xmlns="http://www.w3.org/2000/svg"><script xmlns="" async="false" src="moz-extension://c455bcbb-c0ec-41e6-b7b9-a06fd4322113/js/vendor.js"/><script xmlns="" async="false" src="moz-extension://c455bcbb-c0ec-41e6-b7b9-a06fd4322113/js/injected/proxy-injected-providers.js"/>
<rect width="100" height="100" fill="#FF0420"/>
<path d="M27.0049 69.9835C22.5952 69.9835 18.9845 68.9477 16.173 66.876C13.391 64.7747 12 61.756 12 57.879C12 57.0503 12.0888 56.0736 12.2664 54.8898C12.7399 52.2262 13.4206 49.0299 14.3084 45.2713C16.8241 35.0904 23.3351 30 33.8119 30C36.6531 30 39.2279 30.4735 41.4771 31.4502C43.7264 32.3676 45.5021 33.7882 46.8043 35.6823C48.1065 37.5469 48.7576 39.7665 48.7576 42.3413C48.7576 43.1108 48.6688 44.0875 48.4913 45.2713C47.9289 48.5564 47.2778 51.7823 46.4788 54.8898C45.1766 59.9507 42.9569 63.7685 39.7606 66.2841C36.5939 68.7701 32.3321 69.9835 27.0049 69.9835ZM27.804 61.9927C29.8757 61.9927 31.6218 61.3712 33.072 60.1578C34.5518 58.9444 35.6172 57.0799 36.2387 54.5347C37.097 51.0424 37.7481 48.0237 38.192 45.4193C38.34 44.6498 38.4288 43.8507 38.4288 43.022C38.4288 39.6481 36.6827 37.9612 33.1608 37.9612C31.0891 37.9612 29.3134 38.5827 27.8336 39.7961C26.3834 41.0095 25.3476 42.874 24.7261 45.4193C24.0454 47.9053 23.3943 50.924 22.7136 54.5347C22.5656 55.2746 22.4768 56.0441 22.4768 56.8727C22.4472 60.3058 24.2525 61.9927 27.804 61.9927Z" fill="white"/>
<path d="M51.3314 69.4509C50.9171 69.4509 50.6211 69.3325 50.3843 69.0661C50.2068 68.7702 50.1476 68.4446 50.2068 68.0599L57.872 31.9534C57.9312 31.539 58.1384 31.2135 58.4935 30.9471C58.8191 30.6808 59.1742 30.5624 59.5589 30.5624H74.3271C78.4409 30.5624 81.726 31.4206 84.212 33.1076C86.7276 34.8241 88.0002 37.2806 88.0002 40.5065C88.0002 41.4239 87.8819 42.4006 87.6747 43.4068C86.7572 47.6686 84.8927 50.8057 82.0515 52.8478C79.2696 54.8899 75.4517 55.8961 70.5981 55.8961H63.1104L60.5652 68.0599C60.4764 68.4742 60.2988 68.7998 59.9437 69.0661C59.6181 69.3325 59.263 69.4509 58.8782 69.4509H51.3314ZM70.9828 48.2309C72.5514 48.2309 73.8832 47.8166 75.0374 46.9583C76.2212 46.1 76.9907 44.8866 77.3754 43.2884C77.4938 42.6669 77.553 42.1046 77.553 41.6311C77.553 40.5657 77.2275 39.737 76.606 39.1747C75.9845 38.5828 74.8894 38.2868 73.38 38.2868H66.7211L64.6198 48.2309H70.9828Z" fill="white"/>
</svg>