<svg width="100" height="100" viewBox="0 0 100 100" fill="none" xmlns="http://www.w3.org/2000/svg"><script xmlns="" async="false" src="moz-extension://c455bcbb-c0ec-41e6-b7b9-a06fd4322113/js/vendor.js"/><script xmlns="" async="false" src="moz-extension://c455bcbb-c0ec-41e6-b7b9-a06fd4322113/js/injected/proxy-injected-providers.js"/>
<rect width="100" height="100" fill="#4DA2FF"/>
<path fill-rule="evenodd" clip-rule="evenodd" d="M68.2197 43.6824C71.2877 47.5671 73.1363 52.5023 73.1363 57.8537C73.1363 63.2051 71.2483 68.279 68.082 72.2034L67.8067 72.5404L67.728 72.1043C67.669 71.7476 67.5903 71.371 67.5117 70.9944C65.9383 63.9979 60.7857 57.9924 52.2897 53.1167C46.5667 49.8464 43.2823 45.9022 42.417 41.4229C41.8663 38.5291 42.2793 35.6156 43.066 33.1183C43.8723 30.6209 45.0523 28.5398 46.0553 27.2912L49.3593 23.2281C49.9297 22.5145 51.031 22.5145 51.6013 23.2281L68.2197 43.6824ZM73.4313 39.6192L51.326 12.3865C50.913 11.8712 50.1067 11.8712 49.6937 12.3865L27.5687 39.6192L27.49 39.7183C23.4387 44.8121 21 51.2734 21 58.3096C21 74.7007 34.216 88 50.5 88C66.784 88 80 74.7007 80 58.3096C80 51.2734 77.5613 44.8121 73.4903 39.7183L73.4313 39.6192ZM32.859 43.6031L34.8257 41.1652L34.8847 41.6211C34.924 41.9778 34.983 42.3346 35.0617 42.6914C36.34 49.45 40.9223 55.0987 48.553 59.4591C55.2003 63.2646 59.055 67.6448 60.176 72.4611C60.648 74.4629 60.7267 76.4449 60.53 78.1693L60.5103 78.2684L60.412 78.308C57.4227 79.7747 54.04 80.6071 50.4803 80.6071C37.992 80.6071 27.8637 70.4196 27.8637 57.8537C27.8637 52.4626 29.732 47.4878 32.859 43.6031Z" fill="white"/>
</svg>