<svg width="100" height="100" viewBox="0 0 100 100" fill="none" xmlns="http://www.w3.org/2000/svg"><script xmlns="" async="false" src="moz-extension://c455bcbb-c0ec-41e6-b7b9-a06fd4322113/js/vendor.js"/><script xmlns="" async="false" src="moz-extension://c455bcbb-c0ec-41e6-b7b9-a06fd4322113/js/injected/proxy-injected-providers.js"/>
<rect width="100" height="100" fill="#FF060A"/>
<g clip-path="url(#clip0_5845_1114)">
<path d="M85.0908 34.895C81.5283 31.6057 76.6002 26.5825 72.5864 23.02L72.3489 22.8538C71.9538 22.5365 71.5082 22.2876 71.0308 22.1175C61.3527 20.3125 16.3108 11.8932 15.4321 12C15.1858 12.0345 14.9505 12.1238 14.7433 12.2613L14.5177 12.4394C14.2399 12.7216 14.0289 13.0624 13.9002 13.4369L13.8408 13.5913V14.4344V14.565C18.9114 28.6844 38.9327 74.9375 42.8752 85.7913C43.1127 86.5275 43.5639 87.9288 44.4071 88H44.5971C45.0483 88 46.9721 85.4588 46.9721 85.4588C46.9721 85.4588 81.3621 43.7538 84.8414 39.3125C85.2918 38.7655 85.6894 38.177 86.0289 37.555C86.1156 37.0684 86.0747 36.5676 85.9103 36.1014C85.7459 35.6353 85.4636 35.2196 85.0908 34.895ZM55.7952 39.7519L70.4727 27.58L79.0821 35.5125L55.7952 39.7519ZM50.0952 38.9563L24.8252 18.2463L65.7108 25.7869L50.0952 38.9563ZM52.3752 44.3832L78.2389 40.215L48.6702 75.84L52.3752 44.3832ZM21.3933 20.3125L47.9814 42.875L44.1339 75.8638L21.3933 20.3125Z" fill="white"/>
</g>
<defs>
<clipPath id="clip0_5845_1114">
<rect width="76" height="76" fill="white" transform="translate(12 12)"/>
</clipPath>
</defs>
</svg>